:FULLY-SPECIFIED
:FORCE-ALL-JOINTS-BE-3DOF
:DEGREES
883
root 3.8768 16.4585 30.5982 -8.70051 19.5445 -0.110401
lfemur -18.6774 16.9753 -18.7037
ltibia 42.4714 -0 0
lfoot -12.4734 -11.8851 -0.324188
ltoes 12.916 -0 0
rfemur -52.0173 -17.8923 19.4135
rtibia 61.7491 -0 0
rfoot 3.84087 0.842854 -0.784125
rtoes -3.38816 0 0
lowerback 10.4908 -2.09472 -5.21838
upperback 3.11672 -3.34508 -1.95431
thorax -2.40824 -1.65329 1.24062
lowerneck -7.39112 -4.43302 0.729356
upperneck 5.09621 -6.30792 4.39115
head 3.09664 -2.95026 0.985464
lclavicle -1.97542e-014 -3.97569e-015 0
lhumerus -40.015 -33.5222 92.0214
lradius 61.8348 -0 0
lwrist 18.8537 0 0
lhand 20.0027 9.79165 0.471034
lfingers 7.12502 -0 0
lthumb 44.4368 32.6995 0.173474
rclavicle -1.97542e-014 -3.97569e-015 0
rhumerus -46.2999 -4.68701 -64.2741
rradius 79.1525 -0 0
rwrist -1.07744 0 0
rhand 5.66433 -19.5497 0.191074
rfingers 7.12502 -0 0
rthumb 30.9997 -46.918 0.193332
884
root 3.8652 16.4548 30.6593 -8.31024 19.8475 -0.156017
lfemur -19.1174 17.5825 -18.6334
ltibia 42.8263 -0 0
lfoot -12.6822 -11.1349 -0.326922
ltoes 12.5465 -0 0
rfemur -50.7938 -17.8732 18.3863
rtibia 63.4188 -0 0
rfoot 4.18516 -0.262675 -0.790768
rtoes -1.23162 0 0
lowerback 10.1487 -2.16246 -5.14852
upperback 2.98251 -3.41118 -1.94247
thorax -2.36007 -1.68608 1.20907
lowerneck -7.38036 -4.55504 0.594049
upperneck 5.08013 -6.45897 4.42136
head 3.09915 -3.02737 1.01108
lclavicle -1.97542e-014 -3.97569e-015 0
lhumerus -40.5349 -33.9788 92.942
lradius 61.8344 -0 0
lwrist 18.4875 0 0
lhand 20.5957 10.1753 0.475004
lfingers 7.12502 -0 0
lthumb 44.9858 32.8519 0.174934
rclavicle -1.97542e-014 -3.97569e-015 0
rhumerus -46.1419 -4.19612 -65.6001
rradius 81.031 -0 0
rwrist -1.47295 0 0
rhand 5.84011 -19.0253 0.192683
rfingers 7.12502 -0 0
rthumb 31.1673 -46.3613 0.19496
885
root 3.85361 16.451 30.7203 -7.91948 20.1507 -0.199521
lfemur -19.5582 18.1902 -18.5677
ltibia 43.1812 -0 0
lfoot -12.8911 -10.3846 -0.326922
ltoes 12.177 -0 0
rfemur -49.5712 -17.8332 17.3599
rtibia 65.0884 -0 0
rfoot 4.52951 -1.36822 -0.790768
rtoes 0.924919 -0 0
lowerback 9.80648 -2.22978 -5.07825
upperback 2.84828 -3.47726 -1.93047
thorax -2.31189 -1.71884 1.17749
lowerneck -7.3693 -4.67702 0.458696
upperneck 5.06397 -6.61001 4.45162
head 3.10163 -3.10448 1.03669
lclavicle -1.97542e-014 -3.97569e-015 0
lhumerus -41.0664 -34.4284 93.8726
lradius 61.834 -0 0
lwrist 18.1213 0 0
lhand 21.1886 10.5589 0.475004
lfingers 7.12502 -0 0
lthumb 45.5347 33.0044 0.174934
rclavicle -1.97542e-014 -3.97569e-015 0
rhumerus -45.9953 -3.70171 -66.924
rradius 82.9094 -0 0
rwrist -1.86847 0 0
rhand 6.01589 -18.501 0.192683
rfingers 7.12502 -0 0
rthumb 31.3349 -45.8047 0.19496
886
root 3.84201 16.4473 30.7814 -7.5282 20.4542 -0.240903
lfemur -19.9998 18.7983 -18.5068
ltibia 43.5361 -0 0
lfoot -13.0999 -9.63436 -0.324188
ltoes 11.8075 -0 0
rfemur -48.3498 -17.7724 16.3349
rtibia 66.7581 -0 0
rfoot 4.8738 -2.47375 -0.784125
rtoes 3.08146 -0 0
lowerback 9.46419 -2.29668 -5.00758
upperback 2.71402 -3.54331 -1.91832
thorax -2.26368 -1.75158 1.14589
lowerneck -7.35795 -4.79899 0.323295
upperneck 5.04771 -6.76104 4.48194
head 3.10408 -3.1816 1.0623
lclavicle -1.97542e-014 -3.97569e-015 0
lhumerus -41.6096 -34.8707 94.8132
lradius 61.8336 -0 0
lwrist 17.7551 0 0
lhand 21.7816 10.9425 0.471034
lfingers 7.12502 -0 0
lthumb 46.0837 33.1568 0.173474
rclavicle -1.97542e-014 -3.97569e-015 0
rhumerus -45.8604 -3.20406 -68.246
rradius 84.7879 -0 0
rwrist -2.26398 0 0
rhand 6.19167 -17.9766 0.191074
rfingers 7.12502 -0 0
rthumb 31.5025 -45.248 0.193332
887
root 3.83041 16.4435 30.8424 -7.13637 20.7579 -0.28015
lfemur -20.4424 19.4069 -18.4506
ltibia 43.891 -0 0
lfoot -13.3086 -8.88412 -0.31872
ltoes 11.4379 -0 0
rfemur -47.1303 -17.6908 15.312
rtibia 68.4278 -0 0
rfoot 5.2179 -3.57922 -0.770841
rtoes 5.238 -0 0
lowerback 9.1218 -2.36316 -4.93651
upperback 2.57975 -3.60934 -1.906
thorax -2.21546 -1.78429 1.11426
lowerneck -7.34632 -4.92092 0.187846
upperneck 5.03138 -6.91206 4.5123
head 3.10649 -3.25872 1.08791
lclavicle -1.97542e-014 -3.97569e-015 0
lhumerus -42.1646 -35.3056 95.7639
lradius 61.8331 -0 0
lwrist 17.389 0 0
lhand 22.3745 11.3261 0.463094
lfingers 7.12502 -0 0
lthumb 46.6327 33.3092 0.170553
rclavicle -1.97542e-014 -3.97569e-015 0
rhumerus -45.737 -2.70344 -69.5661
rradius 86.6663 -0 0
rwrist -2.65949 0 0
rhand 6.36743 -17.4523 0.187857
rfingers 7.12502 -0 0
rthumb 31.67 -44.6914 0.190076
888
root 3.81882 16.4397 30.9035 -6.74398 21.0619 -0.317249
lfemur -20.886 20.0159 -18.3992
ltibia 44.2459 -0 0
lfoot -13.5173 -8.13391 -0.310519
ltoes 11.0684 -0 0
rfemur -45.9131 -17.5886 14.2916
rtibia 70.0974 -0 0
rfoot 5.56167 -4.68458 -0.750922
rtoes 7.39454 -0 0
lowerback 8.77931 -2.42921 -4.86504
upperback 2.44544 -3.67533 -1.89354
thorax -2.16721 -1.81697 1.0826
lowerneck -7.33439 -5.04283 0.052346
upperneck 5.01495 -7.06308 4.54272
head 3.10886 -3.33584 1.11352
lclavicle -1.97542e-014 -3.97569e-015 0
lhumerus -42.7313 -35.7329 96.725
lradius 61.8327 -0 0
lwrist 17.0228 0 0
lhand 22.9674 11.7096 0.451185
lfingers 7.12502 -0 0
lthumb 47.1817 33.4616 0.166171
rclavicle -1.97542e-014 -3.97569e-015 0
rhumerus -45.6252 -2.20011 -70.8847
rradius 88.5447 -0 0
rwrist -3.05501 0 0
rhand 6.54315 -16.928 0.183031
rfingers 7.12502 -0 0
rthumb 31.8375 -44.1348 0.185193
889
root 3.80722 16.436 30.9645 -6.35098 21.3661 -0.352189
lfemur -21.3307 20.6252 -18.3527
ltibia 44.6009 -0 0
lfoot -13.7258 -7.38372 -0.299586
ltoes 10.6989 -0 0
rfemur -44.6987 -17.4657 13.2743
rtibia 71.7671 -0 0
rfoot 5.90499 -5.7898 -0.724375
rtoes 9.55107 -0 0
lowerback 8.43672 -2.49484 -4.79317
upperback 2.31112 -3.74129 -1.88091
thorax -2.11895 -1.84963 1.05091
lowerneck -7.32217 -5.1647 -0.0832047
upperneck 4.99844 -7.21408 4.5732
head 3.11121 -3.41295 1.13912
lclavicle -1.97542e-014 -3.97569e-015 0
lhumerus -43.3099 -36.1523 97.6964
lradius 61.8323 -0 0
lwrist 16.6566 0 0
lhand 23.5602 12.0929 0.43531
lfingers 7.12502 -0 0
lthumb 47.7306 33.6139 0.16033
rclavicle -1.97542e-014 -3.97569e-015 0
rhumerus -45.5251 -1.69435 -72.2019
rradius 90.4232 -0 0
rwrist -3.45052 0 0
rhand 6.71882 -16.4037 0.176598
rfingers 7.12502 -0 0
rthumb 32.0049 -43.5782 0.178682
890
root 3.79562 16.4322 31.0255 -5.95736 21.6706 -0.384955
lfemur -21.7768 21.2349 -18.311
ltibia 44.9558 -0 0
lfoot -13.9342 -6.63359 -0.285925
ltoes 10.3294 -0 0
rfemur -43.4877 -17.3223 12.2608
rtibia 73.4368 -0 0
rfoot 6.24774 -6.89483 -0.691213
rtoes 11.7076 -0 0
lowerback 8.09403 -2.56003 -4.7209
upperback 2.17677 -3.80723 -1.86814
thorax -2.07067 -1.88226 1.01919
lowerneck -7.30965 -5.28655 -0.218808
upperneck 4.98185 -7.36508 4.60373
head 3.11351 -3.49007 1.16473
lclavicle -1.97542e-014 -3.97569e-015 0
lhumerus -43.9004 -36.5637 98.6782
lradius 61.8318 -0 0
lwrist 16.2905 0 0
lhand 24.1528 12.476 0.41547
lfingers 7.12502 -0 0
lthumb 48.2796 33.7662 0.15303
rclavicle -1.97542e-014 -3.97569e-015 0
rhumerus -45.4366 -1.18642 -73.5179
rradius 92.3016 -0 0
rwrist -3.84603 0 0
rhand 6.89442 -15.8794 0.168558
rfingers 7.12502 -0 0
rthumb 32.1723 -43.0216 0.170546
891
root 3.78403 16.4285 31.0866 -5.56309 21.9752 -0.415536
lfemur -22.2242 21.8448 -18.2743
ltibia 45.3107 -0 0
lfoot -14.1424 -5.88351 -0.269536
ltoes 9.95986 -0 0
rfemur -42.2806 -17.1586 11.2515
rtibia 75.1065 -0 0
rfoot 6.58978 -7.99964 -0.651448
rtoes 13.8642 -0 0
lowerback 7.75124 -2.62479 -4.64824
upperback 2.04239 -3.87313 -1.8552
thorax -2.02237 -1.91486 0.987448
lowerneck -7.29685 -5.40837 -0.354465
upperneck 4.96517 -7.51607 4.63431
head 3.11579 -3.5672 1.19034
lclavicle -1.97542e-014 -3.97569e-015 0
lhumerus -44.5027 -36.9668 99.6705
lradius 61.8314 -0 0
lwrist 15.9243 0 0
lhand 24.7453 12.8589 0.39167
lfingers 7.12502 -0 0
lthumb 48.8285 33.9184 0.144271
rclavicle -1.97542e-014 -3.97569e-015 0
rhumerus -45.3599 -0.676591 -74.833
rradius 94.1801 -0 0
rwrist -4.24155 0 0
rhand 7.06994 -15.3552 0.158911
rfingers 7.12502 -0 0
rthumb 32.3396 -42.465 0.160784
892
root 3.77243 16.4247 31.1476 -5.16814 22.2801 -0.443916
lfemur -22.6732 22.455 -18.2426
ltibia 45.6656 -0 0
lfoot -14.3503 -5.1335 -0.250424
ltoes 9.59034 -0 0
rfemur -41.0778 -16.9746 10.247
rtibia 76.7761 -0 0
rfoot 6.93099 -9.10417 -0.605096
rtoes 16.0207 -0 0
lowerback 7.40835 -2.68912 -4.5752
upperback 1.90799 -3.93901 -1.84211
thorax -1.97405 -1.94744 0.955675
lowerneck -7.28375 -5.53016 -0.490177
upperneck 4.9484 -7.66705 4.66495
head 3.11803 -3.64432 1.21594
lclavicle -1.97542e-014 -3.97569e-015 0
lhumerus -45.1169 -37.3614 100.673
lradius 61.831 -0 0
lwrist 15.5581 0 0
lhand 25.3377 13.2415 0.363911
lfingers 7.12502 -0 0
lthumb 49.3774 34.0705 0.134054
rclavicle -1.97542e-014 -3.97569e-015 0
rhumerus -45.2949 -0.165139 -76.1472
rradius 96.0585 -0 0
rwrist -4.63706 0 0
rhand 7.24537 -14.831 0.147659
rfingers 7.12502 -0 0
rthumb 32.5068 -41.9085 0.149397
